# xmcd
#
# Track frame offsets:
#        150
#        19257
#        35890
#        50542
#        66660
#        86310
#        102625
#        118675
#        135855
#        152015
#        169480
#        186752
#        203270
#        217145
#        236027
#        249025
#
# Disc length: 3540 seconds
#
# Revision: 3
# Processed by: cddbd v1.5.1PL2 Copyright (c) Steve Scherf et al.
# Submitted via: ExactAudioCopy v0.95b2
#
DISCID=e20dd210
DTITLE=Leo Sayer - The Very Best Of Leo Sayer
DYEAR=1900
DGENRE=
TTITLE0=When I Need You
TTITLE1=You Make Me feel Like Dancing
TTITLE2=Raining In My Heart
TTITLE3=How Much Love
TTITLE4=Dancing The Night Away
TTITLE5=Thunder In My Heart
TTITLE6=I Can't Stop Loving You(Though I Try)
TTITLE7=Easy To Love
TTITLE8=One Man Band
TTITLE9=Giving It All Away
TTITLE10=Train
TTITLE11=Let It Be
TTITLE12=Long Tall Glasses
TTITLE13=Moonlighting
TTITLE14=The Show Must Go On
TTITLE15=More Than I Can Say
EXTD=
EXTT0=
EXTT1=
EXTT2=
EXTT3=
EXTT4=
EXTT5=
EXTT6=
EXTT7=
EXTT8=
EXTT9=
EXTT10=
EXTT11=
EXTT12=
EXTT13=
EXTT14=
EXTT15=
PLAYORDER=
